<?xml version="1.0" standalone="yes"?>
<svg xmlns="http://www.w3.org/2000/svg" width="298" height="298">
<path style="fill:#edfff9; stroke:none;" d="M0 0L0 131L1 131C2.29558 68.2301 68.221 2.29602 131 1C120.496 -3.40756 102.42 0 91 0L0 0z"/>
<path style="fill:#011a18; stroke:none;" d="M131 0L132 1L131 0z"/>
<path style="fill:#33ad6e; stroke:none;" d="M114 142L137 134L137 133C86.6237 119.216 99.5305 42.8484 151 45.0394C199.825 47.1177 210.097 121.333 161 133L161 134C191.961 141.098 214.921 163.04 222.625 194C224.363 200.986 228.354 214.231 224.972 221C221.418 228.115 212.599 233.789 206 237.796C186.442 249.67 164.488 253 142 253C144.988 263.609 147.7 274.307 150.373 285C151.207 288.333 151.59 294.793 154.564 296.971C160.107 301.031 176.798 295.943 183 294.576C211.099 288.378 244.068 272.037 261 248L256 252C254.37 232.044 246.226 211.412 241.373 192C231.197 151.296 221.107 110.5 210.151 70C206.019 54.7247 202.662 39.248 198.424 24C197.099 19.2305 196.746 10.4544 193.146 6.85416C188.935 2.64316 177.65 2.10385 172 1.27161C150.547 -1.88864 127.861 -0.525299 107 5.42749C101.293 7.05606 84.7943 10.9177 82.777 17.2631C80.2275 25.2826 88.5893 42.8511 90.6265 51C98.2155 81.3558 105.516 111.882 114 142z"/>
<path style="fill:#011a18; stroke:none;" d="M166 0L167 1L166 0z"/>
<path style="fill:#edfff9; stroke:none;" d="M167 0L167 1C229.779 2.29602 295.704 68.2301 297 131L298 131L298 0L167 0z"/>
<path style="fill:#011a18; stroke:none;" d="M124 1L125 2L124 1z"/>
<path style="fill:#229e61; stroke:none;" d="M173 1L174 2L173 1M119 2L120 3L119 2M114 3L115 4L114 3M183 3L184 4L183 3M110 4L111 5L110 4M187 4L188 5L187 4M103 6L104 7L103 6M194 6L195 7L194 6z"/>
<path style="fill:#011a18; stroke:none;" d="M100 7L101 8L100 7z"/>
<path style="fill:#46bd7d; stroke:none;" d="M194 7L239.873 187L256 252C272.917 240.05 284.28 216.161 290.667 197C316.428 119.716 273.979 29.6963 194 7z"/>
<path style="fill:#33ad6e; stroke:none;" d="M195.667 7.33334L196.333 7.66666L195.667 7.33334z"/>
<path style="fill:#229e61; stroke:none;" d="M197 7L198 8L197 7z"/>
<path style="fill:#33ad6e; stroke:none;" d="M199 8L200 9L199 8z"/>
<path style="fill:#229e61; stroke:none;" d="M95 9L96 10L95 9z"/>
<path style="fill:#33ad6e; stroke:none;" d="M202 9L203 10L202 9z"/>
<path style="fill:#011a18; stroke:none;" d="M92 10L93 11L92 10z"/>
<path style="fill:#229e61; stroke:none;" d="M93 10L94 11L93 10M205 10L206 11L205 10M90 11L91 12L90 11z"/>
<path style="fill:#33ad6e; stroke:none;" d="M207 11L208 12L207 11z"/>
<path style="fill:#229e61; stroke:none;" d="M88 12L89 13L88 12z"/>
<path style="fill:#011a18; stroke:none;" d="M85 13L86 14L85 13z"/>
<path style="fill:#229e61; stroke:none;" d="M86 13L87 14L86 13z"/>
<path style="fill:#011a18; stroke:none;" d="M212 13L213 14L212 13z"/>
<path style="fill:#229e61; stroke:none;" d="M83 14L83 15L86 15L83 14M214 14L215 15L214 14z"/>
<path style="fill:#011a18; stroke:none;" d="M81 15L82 16L81 15z"/>
<path style="fill:#229e61; stroke:none;" d="M82 15L83 16L82 15M216 15L217 16L216 15M154 298C151.106 287.727 148.932 277.262 146 267C144.97 263.394 144.615 257.463 142.062 254.6C138.574 250.685 126.991 251.084 122 249.986C109.982 247.342 98.0863 242.339 88 235.279C82.7125 231.577 74.9156 226.299 72.6034 220C70.4516 214.138 73.2153 204.923 74.3997 199C79.328 174.355 92.5175 155.207 114 142L82 16C67.7146 19.2686 53.0695 32.932 43.0008 43.0008C6.15866 79.8429 -8.72927 135.49 3.89506 186C21.3577 255.869 84.2399 298 154 298M218 16L219 17L218 16z"/>
<path style="fill:#33ad6e; stroke:none;" d="M223 19L224 20L223 19M225 20L226 21L225 20z"/>
<path style="fill:#011a18; stroke:none;" d="M67 23L68 24L67 23M230 23L231 24L230 23M64 25L65 26L64 25M233 25L234 26L233 25z"/>
<path style="fill:#33ad6e; stroke:none;" d="M237 28L238 29L237 28M241 31L242 32L241 31z"/>
<path style="fill:#011a18; stroke:none;" d="M51 35L52 36L51 35M246 35L247 36L246 35z"/>
<path style="fill:#33ad6e; stroke:none;" d="M247 36L248 37L247 36M248 37L249 38L248 37z"/>
<path style="fill:#46bd7d; stroke:none;" d="M142 45L142 46L145 46L142 45z"/>
<path style="fill:#edfff9; stroke:none;" d="M139 133L139 134C106.926 140.224 83.472 162.029 75.8843 194C74.043 201.758 69.9997 215.71 74.6034 223C90.6521 248.412 132.153 253.136 159 251.961C178.883 251.09 214.221 241.495 223.972 222C227.674 214.6 223.915 201.581 222.116 194C214.527 162.026 191.096 140.228 159 134C171.699 128.974 182.938 123.029 189.11 110C205.44 75.5222 174.791 38.3781 138 46.6651C95.5792 56.2202 92.2002 128.31 139 133z"/>
<path style="fill:#46bd7d; stroke:none;" d="M153 45L153 46L156 46L153 45M137.667 46.3333L138.333 46.6667L137.667 46.3333M159.667 46.3333L160.333 46.6667L159.667 46.3333M134 47L135 48L134 47M163 47L164 48L163 47M131 48L132 49L131 48M166 48L167 49L166 48M129 49L130 50L129 49M168 49L169 50L168 49z"/>
<path style="fill:#33ad6e; stroke:none;" d="M260 49L261 50L260 49z"/>
<path style="fill:#46bd7d; stroke:none;" d="M127 50L128 51L127 50M170 50L171 51L170 50z"/>
<path style="fill:#33ad6e; stroke:none;" d="M261 50L262 51L261 50z"/>
<path style="fill:#011a18; stroke:none;" d="M35 51L36 52L35 51z"/>
<path style="fill:#46bd7d; stroke:none;" d="M172 51L173 52L172 51z"/>
<path style="fill:#011a18; stroke:none;" d="M262 51L263 52L262 51z"/>
<path style="fill:#46bd7d; stroke:none;" d="M124 52L125 53L124 52M173 52L174 53L173 52M175 53L176 54L175 53M121 54L122 55L121 54M176 54L177 55L176 54M120 55L121 56L120 55M177 55L178 56L177 55z"/>
<path style="fill:#33ad6e; stroke:none;" d="M266 56L267 57L266 56M269 60L270 61L269 60z"/>
<path style="fill:#46bd7d; stroke:none;" d="M114 61L115 62L114 61M183 61L184 62L183 61M113 62L114 63L113 62M184 62L185 63L184 62M185 63L186 64L185 63z"/>
<path style="fill:#011a18; stroke:none;" d="M25 64L26 65L25 64M272 64L273 65L272 64z"/>
<path style="fill:#46bd7d; stroke:none;" d="M111 65L112 66L111 65M186 65L187 66L186 65M187 66L188 67L187 66z"/>
<path style="fill:#011a18; stroke:none;" d="M23 67L24 68L23 67M274 67L275 68L274 67z"/>
<path style="fill:#46bd7d; stroke:none;" d="M109 68L110 69L109 68M188 68L189 69L188 68M108 70L109 71L108 70M189 70L190 71L189 70M107.333 72.6667L107.667 73.3333L107.333 72.6667M190 72L191 73L190 72z"/>
<path style="fill:#33ad6e; stroke:none;" d="M277 72L278 73L277 72z"/>
<path style="fill:#46bd7d; stroke:none;" d="M106 75L107 76L106 75M191 75L192 76L191 75M105.333 78.6667L105.667 79.3333L105.333 78.6667M192.333 78.6667L192.667 79.3333L192.333 78.6667z"/>
<path style="fill:#011a18; stroke:none;" d="M281 79L282 80L281 79M15 81L16 82L15 81z"/>
<path style="fill:#229e61; stroke:none;" d="M282 81L283 82L282 81z"/>
<path style="fill:#46bd7d; stroke:none;" d="M193 82L193 86L194 86L193 82z"/>
<path style="fill:#011a18; stroke:none;" d="M14 83L15 84L14 83z"/>
<path style="fill:#46bd7d; stroke:none;" d="M104 83L104 87L105 87L104 83z"/>
<path style="fill:#229e61; stroke:none;" d="M283 83L284 84L283 83z"/>
<path style="fill:#011a18; stroke:none;" d="M13 85L14 86L13 85M284 85L285 86L284 85z"/>
<path style="fill:#229e61; stroke:none;" d="M287 92L288 93L287 92z"/>
<path style="fill:#46bd7d; stroke:none;" d="M104 93L104 97L105 97L104 93M193 94L193 97L194 97L193 94z"/>
<path style="fill:#011a18; stroke:none;" d="M8 97L9 98L8 97M289 97L290 98L289 97M7 100L8 101L7 100z"/>
<path style="fill:#46bd7d; stroke:none;" d="M105.333 100.667L105.667 101.333L105.333 100.667M192.333 100.667L192.667 101.333L192.333 100.667z"/>
<path style="fill:#229e61; stroke:none;" d="M290 100L291 101L290 100M291 103L292 104L291 103z"/>
<path style="fill:#46bd7d; stroke:none;" d="M106 104L107 105L106 104M191 104L192 105L191 104M107 106L108 107L107 106M190.333 106.667L190.667 107.333L190.333 106.667M108 109L109 110L108 109M189 109L190 110L189 109M109 111L110 112L109 111M188 111L189 112L188 111M187 113L188 114L187 113M111 114L112 115L111 114M186 114L187 115L186 114M185 116L186 117L185 116M113 117L114 118L113 117M184 117L185 118L184 117M114 118L115 119L114 118M183 118L184 119L183 118M115 119L116 120L115 119M182 119L183 120L182 119M119 123L120 124L119 123M178 123L179 124L178 123z"/>
<path style="fill:#011a18; stroke:none;" d="M1 124L2 125L1 124z"/>
<path style="fill:#46bd7d; stroke:none;" d="M120 124L121 125L120 124M177 124L178 125L177 124z"/>
<path style="fill:#229e61; stroke:none;" d="M296 124L297 125L296 124z"/>
<path style="fill:#46bd7d; stroke:none;" d="M121 125L122 126L121 125M176 125L177 126L176 125M124 127L125 128L124 127M173 127L174 128L173 127M127 129L128 130L127 129M170 129L171 130L170 129M129 130L130 131L129 130M168 130L169 131L168 130z"/>
<path style="fill:#011a18; stroke:none;" d="M0 131L1 132L0 131z"/>
<path style="fill:#46bd7d; stroke:none;" d="M132 131L133 132L132 131M165.667 131.333L166.333 131.667L165.667 131.333z"/>
<path style="fill:#011a18; stroke:none;" d="M297 131L298 132L297 131z"/>
<path style="fill:#46bd7d; stroke:none;" d="M134 132L135 133L134 132M163 132L164 133L163 132M137.667 133.333L138.333 133.667L137.667 133.333M159.667 133.333L160.333 133.667L159.667 133.333M135.667 134.333L136.333 134.667L135.667 134.333M161 134L161 135L164 135L161 134M131 135L132 136L131 135M166 135L167 136L166 135M127.667 136.333L128.333 136.667L127.667 136.333M169.667 136.333L170.333 136.667L169.667 136.333M124.667 137.333L125.333 137.667L124.667 137.333M172.667 137.333L173.333 137.667L172.667 137.333M122 138L123 139L122 138M175 138L176 139L175 138M119 139L120 140L119 139M178 139L179 140L178 139M117 140L118 141L117 140M180 140L181 141L180 140M115 141L116 142L115 141M182 141L183 142L182 141M113 142L114 143L113 142M184 142L185 143L184 142M111 143L112 144L111 143M186 143L187 144L186 143z"/>
<path style="fill:#33ad6e; stroke:none;" d="M109 144L110 145L109 144z"/>
<path style="fill:#46bd7d; stroke:none;" d="M110 144L111 145L110 144M187 144L188 145L187 144M108 145L109 146L108 145M189 145L190 146L189 145z"/>
<path style="fill:#33ad6e; stroke:none;" d="M106 146L107 147L106 146z"/>
<path style="fill:#46bd7d; stroke:none;" d="M105 147L106 148L105 147M192 147L193 148L192 147M104 148L105 149L104 148M193 148L194 149L193 148z"/>
<path style="fill:#33ad6e; stroke:none;" d="M102 149L103 150L102 149z"/>
<path style="fill:#46bd7d; stroke:none;" d="M195 149L196 150L195 149M101 150L102 151L101 150M196 150L197 151L196 150M100 151L101 152L100 151M197 151L198 152L197 151M99 152L100 153L99 152M198 152L199 153L198 152M98 153L99 154L98 153M199 153L200 154L199 153M97 154L98 155L97 154M200 154L201 155L200 154M96 155L97 156L96 155M201 155L202 156L201 155M95 156L96 157L95 156M202 156L203 157L202 156M94 157L95 158L94 157M203 157L204 158L203 157M93 158L94 159L93 158M204 158L205 159L204 158M92 159L93 160L92 159M205 159L206 160L205 159M91 160L92 161L91 160M206 160L207 161L206 160z"/>
<path style="fill:#33ad6e; stroke:none;" d="M90 161L91 162L90 161z"/>
<path style="fill:#46bd7d; stroke:none;" d="M207 161L208 162L207 161M89 163L90 164L89 163M208 163L209 164L208 163M88 164L89 165L88 164M209 164L210 165L209 164z"/>
<path style="fill:#33ad6e; stroke:none;" d="M87 165L88 166L87 165z"/>
<path style="fill:#011a18; stroke:none;" d="M0 166L1 167L0 166z"/>
<path style="fill:#46bd7d; stroke:none;" d="M87 166L88 167L87 166M210 166L211 167L210 166z"/>
<path style="fill:#011a18; stroke:none;" d="M297 166L298 167L297 166z"/>
<path style="fill:#edfff9; stroke:none;" d="M0 167L0 298L131 298L131 297C82.3649 295.996 35.593 256.569 14.8086 215C7.0972 199.577 6.56692 182.223 0 167z"/>
<path style="fill:#46bd7d; stroke:none;" d="M86 167L87 168L86 167M211 167L212 168L211 167z"/>
<path style="fill:#edfff9; stroke:none;" d="M297 167C295.704 229.77 229.779 295.704 167 297L167 298L298 298L298 207C298 195.58 301.408 177.504 297 167z"/>
<path style="fill:#46bd7d; stroke:none;" d="M85 169L86 170L85 169M212 169L213 170L212 169z"/>
<path style="fill:#33ad6e; stroke:none;" d="M84 170L85 171L84 170z"/>
<path style="fill:#46bd7d; stroke:none;" d="M213.333 170.667L213.667 171.333L213.333 170.667M84 171L85 172L84 171M83 172L84 173L83 172M214 172L215 173L214 172z"/>
<path style="fill:#011a18; stroke:none;" d="M1 173L2 174L1 173z"/>
<path style="fill:#229e61; stroke:none;" d="M296 173L297 174L296 173z"/>
<path style="fill:#46bd7d; stroke:none;" d="M82 174L83 175L82 174M215 174L216 175L215 174z"/>
<path style="fill:#33ad6e; stroke:none;" d="M81 176L82 177L81 176z"/>
<path style="fill:#46bd7d; stroke:none;" d="M216 176L217 177L216 176M81 177L82 178L81 177z"/>
<path style="fill:#33ad6e; stroke:none;" d="M80 178L81 179L80 178z"/>
<path style="fill:#46bd7d; stroke:none;" d="M217.333 178.667L217.667 179.333L217.333 178.667M80 179L81 180L80 179M79 181L80 182L79 181M218 181L219 182L218 181z"/>
<path style="fill:#33ad6e; stroke:none;" d="M78 183L79 184L78 183z"/>
<path style="fill:#46bd7d; stroke:none;" d="M219.333 183.667L219.667 184.333L219.333 183.667z"/>
<path style="fill:#229e61; stroke:none;" d="M294 183L295 184L294 183z"/>
<path style="fill:#46bd7d; stroke:none;" d="M78 184L79 185L78 184z"/>
<path style="fill:#33ad6e; stroke:none;" d="M77 186L78 187L77 186z"/>
<path style="fill:#46bd7d; stroke:none;" d="M220.333 186.667L220.667 187.333L220.333 186.667M77 187L78 188L77 187z"/>
<path style="fill:#229e61; stroke:none;" d="M293 187L294 188L293 187z"/>
<path style="fill:#33ad6e; stroke:none;" d="M76 189L77 190L76 189z"/>
<path style="fill:#46bd7d; stroke:none;" d="M221 189L221 192L222 192L221 189M76.3333 190.667L76.6667 191.333L76.3333 190.667z"/>
<path style="fill:#33ad6e; stroke:none;" d="M75 193L76 194L75 193z"/>
<path style="fill:#46bd7d; stroke:none;" d="M222 193L222 196L223 196L222 193M75.3333 194.667L75.6667 195.333L75.3333 194.667z"/>
<path style="fill:#229e61; stroke:none;" d="M291 194L292 195L291 194z"/>
<path style="fill:#46bd7d; stroke:none;" d="M223 197L223 201L224 201L223 197z"/>
<path style="fill:#229e61; stroke:none;" d="M290 197L291 198L290 197z"/>
<path style="fill:#46bd7d; stroke:none;" d="M74 198L74 201L75 201L74 198z"/>
<path style="fill:#011a18; stroke:none;" d="M8 200L9 201L8 200M289 200L290 201L289 200z"/>
<path style="fill:#33ad6e; stroke:none;" d="M73 203L74 204L73 203z"/>
<path style="fill:#46bd7d; stroke:none;" d="M224 203L224 208L225 208L224 203M73 204L73 208L74 208L73 204z"/>
<path style="fill:#229e61; stroke:none;" d="M287 205L288 206L287 205z"/>
<path style="fill:#33ad6e; stroke:none;" d="M72.3333 211.667L72.6667 212.333L72.3333 211.667z"/>
<path style="fill:#46bd7d; stroke:none;" d="M225 211L225 222L226 222L225 211z"/>
<path style="fill:#011a18; stroke:none;" d="M13 212L14 213L13 212M284 212L285 213L284 212z"/>
<path style="fill:#46bd7d; stroke:none;" d="M72 213L72 222L73 222L72 213z"/>
<path style="fill:#011a18; stroke:none;" d="M14 214L15 215L14 214z"/>
<path style="fill:#229e61; stroke:none;" d="M283 214L284 215L283 214z"/>
<path style="fill:#011a18; stroke:none;" d="M15 216L16 217L15 216z"/>
<path style="fill:#229e61; stroke:none;" d="M282 216L283 217L282 216z"/>
<path style="fill:#011a18; stroke:none;" d="M281 218L282 219L281 218z"/>
<path style="fill:#46bd7d; stroke:none;" d="M73 222L74 223L73 222M224 222L225 223L224 222M74 223L75 224L74 223M223 223L224 224L223 223M75 224L76 225L75 224M222 224L223 225L222 224M76 225L77 226L76 225M221 225L222 226L221 225z"/>
<path style="fill:#33ad6e; stroke:none;" d="M277 225L278 226L277 225z"/>
<path style="fill:#46bd7d; stroke:none;" d="M77 226L78 227L77 226M220 226L221 227L220 226M78 227L79 228L78 227M219 227L220 228L219 227M79 228L80 229L79 228M218 228L219 229L218 228M80 229L81 230L80 229M217 229L218 230L217 229z"/>
<path style="fill:#011a18; stroke:none;" d="M23 230L24 231L23 230z"/>
<path style="fill:#46bd7d; stroke:none;" d="M81 230L82 231L81 230M216 230L217 231L216 230z"/>
<path style="fill:#011a18; stroke:none;" d="M274 230L275 231L274 230z"/>
<path style="fill:#33ad6e; stroke:none;" d="M82 231L83 232L82 231z"/>
<path style="fill:#46bd7d; stroke:none;" d="M214.667 231.333L215.333 231.667L214.667 231.333z"/>
<path style="fill:#33ad6e; stroke:none;" d="M273 231L274 232L273 231z"/>
<path style="fill:#46bd7d; stroke:none;" d="M84 232L85 233L84 232M213 232L214 233L213 232z"/>
<path style="fill:#011a18; stroke:none;" d="M25 233L26 234L25 233z"/>
<path style="fill:#46bd7d; stroke:none;" d="M85 233L86 234L85 233M212 233L213 234L212 233z"/>
<path style="fill:#011a18; stroke:none;" d="M272 233L273 234L272 233z"/>
<path style="fill:#33ad6e; stroke:none;" d="M86 234L87 235L86 234z"/>
<path style="fill:#46bd7d; stroke:none;" d="M210.667 234.333L211.333 234.667L210.667 234.333z"/>
<path style="fill:#33ad6e; stroke:none;" d="M271 234L272 235L271 234z"/>
<path style="fill:#46bd7d; stroke:none;" d="M88 235L89 236L88 235M209 235L210 236L209 235z"/>
<path style="fill:#33ad6e; stroke:none;" d="M89 236L90 237L89 236z"/>
<path style="fill:#46bd7d; stroke:none;" d="M90 236L91 237L90 236M207.667 236.333L208.333 236.667L207.667 236.333M91 237L92 238L91 237M206 237L207 238L206 237z"/>
<path style="fill:#33ad6e; stroke:none;" d="M269 237L270 238L269 237M92 238L93 239L92 238z"/>
<path style="fill:#46bd7d; stroke:none;" d="M93 238L94 239L93 238M204 238L205 239L204 238z"/>
<path style="fill:#33ad6e; stroke:none;" d="M268 238L269 239L268 238M94 239L95 240L94 239z"/>
<path style="fill:#46bd7d; stroke:none;" d="M95 239L96 240L95 239M202.667 239.333L203.333 239.667L202.667 239.333M96.6667 240.333L97.3333 240.667L96.6667 240.333M200.667 240.333L201.333 240.667L200.667 240.333M98.6667 241.333L99.3333 241.667L98.6667 241.333M198.667 241.333L199.333 241.667L198.667 241.333z"/>
<path style="fill:#33ad6e; stroke:none;" d="M266 241L267 242L266 241z"/>
<path style="fill:#46bd7d; stroke:none;" d="M100.667 242.333L101.333 242.667L100.667 242.333M196.667 242.333L197.333 242.667L196.667 242.333z"/>
<path style="fill:#33ad6e; stroke:none;" d="M265 242L266 243L265 242M102 243L103 244L102 243z"/>
<path style="fill:#46bd7d; stroke:none;" d="M103 243L104 244L103 243M194.667 243.333L195.333 243.667L194.667 243.333z"/>
<path style="fill:#33ad6e; stroke:none;" d="M264 243L265 244L264 243M104 244L105 245L104 244z"/>
<path style="fill:#46bd7d; stroke:none;" d="M105 244L106 245L105 244M191.667 244.333L192.333 244.667L191.667 244.333M107.667 245.333L108.333 245.667L107.667 245.333M189.667 245.333L190.333 245.667L189.667 245.333M110.667 246.333L111.333 246.667L110.667 246.333M186.667 246.333L187.333 246.667L186.667 246.333z"/>
<path style="fill:#011a18; stroke:none;" d="M262 246L263 247L262 246z"/>
<path style="fill:#33ad6e; stroke:none;" d="M112 247L113 248L112 247z"/>
<path style="fill:#46bd7d; stroke:none;" d="M113.667 247.333L114.333 247.667L113.667 247.333M183.667 247.333L184.333 247.667L183.667 247.333z"/>
<path style="fill:#229e61; stroke:none;" d="M261 247L262 248L261 247z"/>
<path style="fill:#46bd7d; stroke:none;" d="M116 248L116 249L119 249L116 248M179 248L179 249L182 249L179 248z"/>
<path style="fill:#33ad6e; stroke:none;" d="M119 249L120 250L119 249z"/>
<path style="fill:#46bd7d; stroke:none;" d="M120 249L120 250L123 250L120 249M175 249L175 250L178 250L175 249z"/>
<path style="fill:#33ad6e; stroke:none;" d="M124 250L125 251L124 250z"/>
<path style="fill:#46bd7d; stroke:none;" d="M125 250L125 251L128 251L125 250M170 250L170 251L174 251L170 250z"/>
<path style="fill:#33ad6e; stroke:none;" d="M129 251L130 252L129 251z"/>
<path style="fill:#46bd7d; stroke:none;" d="M130 251L130 252L135 252L130 251M163 251L163 252L168 252L163 251z"/>
<path style="fill:#33ad6e; stroke:none;" d="M136.667 252.333L137.333 252.667L136.667 252.333z"/>
<path style="fill:#46bd7d; stroke:none;" d="M138 252L138 253L160 253L138 252z"/>
<path style="fill:#229e61; stroke:none;" d="M247 261L248 262L247 261z"/>
<path style="fill:#011a18; stroke:none;" d="M51 262L52 263L51 262M246 262L247 263L246 262z"/>
<path style="fill:#229e61; stroke:none;" d="M241 266L242 267L241 266M237 269L238 270L237 269z"/>
<path style="fill:#011a18; stroke:none;" d="M64 272L65 273L64 272M233 272L234 273L233 272M67 274L68 275L67 274M230 274L231 275L230 274z"/>
<path style="fill:#229e61; stroke:none;" d="M218 281L219 282L218 281M216 282L217 283L216 282z"/>
<path style="fill:#011a18; stroke:none;" d="M83 283L84 284L83 283z"/>
<path style="fill:#229e61; stroke:none;" d="M214 283L215 284L214 283z"/>
<path style="fill:#011a18; stroke:none;" d="M85 284L86 285L85 284M212 284L213 285L212 284z"/>
<path style="fill:#229e61; stroke:none;" d="M207 286L208 287L207 286M205 287L206 288L205 287z"/>
<path style="fill:#011a18; stroke:none;" d="M100 290L101 291L100 290M197 290L198 291L197 290z"/>
<path style="fill:#229e61; stroke:none;" d="M194 291L195 292L194 291M187 293L188 294L187 293M183 294L184 295L183 294M178 295L179 296L178 295z"/>
<path style="fill:#011a18; stroke:none;" d="M124 296L125 297L124 296z"/>
<path style="fill:#229e61; stroke:none;" d="M172 296L173 297L172 296z"/>
<path style="fill:#011a18; stroke:none;" d="M173 296L174 297L173 296M131 297L132 298L131 297z"/>
<path style="fill:#229e61; stroke:none;" d="M161 297L161 298L164 298L161 297M165 297L166 298L165 297z"/>
<path style="fill:#011a18; stroke:none;" d="M166 297L167 298L166 297z"/>
</svg>
